<svg xmlns="http://www.w3.org/2000/svg" viewBox="0 0 150.95 192.46"><defs><style>.cls-1{fill:#dea172;}.cls-1,.cls-2{stroke:#694c32;stroke-miterlimit:10;}.cls-2{fill:#ca7639;}.cls-3{fill:#482c16;}.cls-4{font-size:36px;fill:#694c32;font-family:Anton-Regular, Anton;}</style></defs><g id="Layer_2" data-name="Layer 2"><g id="Layer_2-2" data-name="Layer 2"><path class="cls-1" d="M3.6,25.94c5.79-2.27,13.71-1.86,20.94.38a15.07,15.07,0,0,1,8.81,7.79c2.13,4.55,1.39,9.94-6.14,23.38C17.76,74.34,17.9,74.1,16.11,81c-5.2,20,7.71,37.67,15.38,42.89a40.19,40.19,0,0,0,8,4.47c3.65,1.42,8.79,3.47,8.09,2.32-1.2-2-3.07-7.15-4-13.29C41.32,102.68,47.7,89.66,50.06,86c3.58-5.51,4.3-6.41,9.71-13.61C70.41,58.25,73.41,53.09,74.2,46.24a39.22,39.22,0,0,0,.19-9.37A50.28,50.28,0,0,0,67.82,17,33.48,33.48,0,0,0,54.59,4.58C46.06.12,37.84.44,33.78.55,30.36.65,21.93,1.14,14,5.69,9.65,8.21,4.11,11.76,1.69,17.9.18,21.72.22,28.53,1.18,27.47A5,5,0,0,1,3.6,25.94Z"/><path class="cls-1" d="M97.61,9.62c-3.19,0-5.87,6-6.75,12.58-.09.72-.24,1.72-.36,3.46-.27,3.67-.09,6.17-.64,8.05-1.54,5.32-6.53,4.95-8.25,10a13.76,13.76,0,0,0,0,7.89c.68,2.71,2.46,5.75,11.93,15.86,2.27,2.41,5.65,5.69,12.43,12.25a64.65,64.65,0,0,0,6.29,5.62c3.24,2.47,3.94,3.62,9.12,6.74,8.88,5.34,9.07,5.38,11.91,6.11.51.13,9.16,2.24,13.61-2.55,2-2.09,3-4.86,3.46-10.33s-.55-10.22-2.24-15.64-3.91-8.33-7.77-12.93a44.31,44.31,0,0,0-11.32-10c-4.24-2.65-4.08-3-6.5-4.86-6.57-5-2.21-7.74-2.62-17.29-.18-4.13-1.6-10-3.48-10.11-2.82-.19-6.54,5.26-9.09,8.89-1,1.36-.77-1.08-4.69-7.95C100.49,11.66,99.28,9.62,97.61,9.62Z"/><path class="cls-2" d="M78.92,56.49S69.19,67.17,65.47,71.72s-9.7,13.7-12.6,21.87-5,15.24-4.85,23.92,2.9,14.55,5.71,17,7.06,8.26,13.1,9.11,48.09,0,48.09,0-10.43-7.35-8-6.15,15-17.09,15-17.09S131,109,130.53,105.27C129.78,99.76,116,90.89,116,90.89c1,1.67-16-12.54-17.11-14-1.32-1.8-8-8.66-8-8.66L72.7,92.49l-10.12,15-4.94,7.23s-1.38-3.85,2-12.92c1-2.83,9.53-16.51,9.53-16.51s4.22-6.34,10.38-13.72c6.35-7.6,6.67-7.26,6.67-7.26Z"/><polygon class="cls-3" points="97.84 124.84 104.99 112.24 107.54 112.24 107.54 116.16 97.84 128.24 97.84 124.84"/><path class="cls-3" d="M107.54,112.24c.51-.34,1.71-3.06,2-5.79a32.72,32.72,0,0,0,0-6.12l1.87,1.71v6.46s-.17,6.63-2,6.63S107.54,112.24,107.54,112.24Z"/><polygon class="cls-3" points="101.06 131.65 104.06 124.5 107.97 116.67 109.5 116.67 108.48 120.75 104.22 128.58 101.06 131.65"/><polygon class="cls-3" points="108.52 120.24 110.06 115.3 112.78 114.45 114.65 103.22 116.27 103.22 116.27 115.64 113.63 120.24 108.52 120.24"/></g><g id="nombre"><text class="cls-4" transform="translate(14.47 180.73) scale(1.39 1)">kenutz</text></g></g></svg>