<svg xmlns="http://www.w3.org/2000/svg" width="251" height="41" viewBox="0 0 251 41">
  <g id="Group_20" data-name="Group 20" transform="translate(-251 -198)">
    <rect id="Rectangle_24" data-name="Rectangle 24" width="251" height="41" rx="20.5" transform="translate(251 198)" fill="#faf9f9" opacity="0.83"/>
    <path id="Icon_awesome-search" data-name="Icon awesome-search" d="M18.848,16.523,15.127,12.8a.9.9,0,0,0-.634-.261h-.608a7.76,7.76,0,1,0-1.344,1.344v.608a.9.9,0,0,0,.261.634l3.721,3.721a.892.892,0,0,0,1.265,0l1.056-1.056A.9.9,0,0,0,18.848,16.523ZM7.763,12.541a4.777,4.777,0,1,1,4.777-4.777A4.775,4.775,0,0,1,7.763,12.541Z" transform="translate(461.98 209)"/>
  </g>
</svg>
